# This file uses meters as units for non-parametric coordinates.

mtllib brokenWood2.mtl
g default
v 49.569321 0.135735 4.150189
v 44.084187 0.135735 23.904980
v 50.228218 5.014927 4.333134
v 44.743084 5.014927 24.087926
v -20.728848 10.360902 -15.368869
v -28.398170 10.678601 3.779454
v -28.514933 15.670618 3.747021
v -24.995247 15.956515 -16.553470
v -22.651237 10.340364 -7.897640
v -26.058943 10.695137 -5.086295
v -24.987598 10.389524 -0.794231
v -29.531120 13.944454 3.464879
v -29.720228 15.993102 -0.512534
v -27.232765 15.731617 -2.497501
v -26.758993 15.794492 -5.880649
v -27.518856 16.055504 -10.105041
v -25.099281 15.760770 -10.958781
v -24.983162 15.815523 -12.837234
v -26.210993 16.079144 -15.445728
v -25.448185 14.158732 -16.679240
v -26.465746 13.074446 -16.961765
v -26.765942 10.540255 1.590588
v -21.723719 10.350274 -11.502383
v -21.182758 10.356052 -13.604774
v -28.572491 13.874671 0.304524
v -26.509064 14.009643 -1.948478
v -26.483295 13.786244 -5.567821
v -25.504276 13.690172 -9.191451
v -23.739265 13.729817 -12.327819
v -23.990448 13.551727 -14.632739
v -10.251072 5.000686 41.460942
v 10.251076 5.000686 41.460942
v -10.251076 0.073806 41.460942
v 10.251068 0.073806 41.460942
v -10.251072 5.000686 -32.209811
v 10.251074 5.000686 -34.498790
v 10.251066 0.073806 -35.311664
v -10.251075 0.073790 -37.371387
v -2.537886 5.000686 -32.061843
v 1.082651 5.000686 -34.617912
v 4.931656 5.000686 -32.416023
v 10.251070 1.929641 -36.116496
v 6.469255 0.073806 -37.635108
v 3.891134 0.073806 -35.751151
v 0.504567 0.073806 -36.204150
v -3.362537 0.073806 -38.084697
v -4.832503 0.073806 -35.961189
v -6.673537 0.073806 -36.355685
v -8.858450 0.073806 -38.255016
v -10.251073 1.919417 -37.587409
v -10.251072 3.139785 -38.482742
v 7.705301 5.000686 -33.502017
v -6.259382 5.000686 -32.133235
v -8.429855 5.000686 -32.174876
v 6.949457 1.987899 -36.029407
v 4.226536 1.661940 -34.676105
v 0.732231 2.014128 -35.579452
v -3.021236 2.112899 -35.592002
v -6.515484 1.954055 -34.744273
v -8.669175 2.249602 -35.569923
vt 0.109527 0.926683
vt 0.252912 0.926683
vt 0.252907 0.961138
vt 0.109532 0.961138
vt 0.168347 0.036552
vt 0.259122 0.044023
vt 0.231986 0.379768
vt 0.221127 0.374832
vt 0.208765 0.369490
vt 0.190127 0.377781
vt 0.174470 0.365159
vt 0.157446 0.363771
vt 0.147781 0.362748
vt 0.139852 0.361831
vt 0.280941 0.045798
vt 0.253063 0.385571
vt 0.244558 0.388459
vt 0.113357 0.393942
vt 0.121755 0.390754
vt 0.137461 0.400661
vt 0.149902 0.403478
vt 0.161730 0.401117
vt 0.184267 0.402744
vt 0.206547 0.405694
vt 0.223376 0.393495
vt 0.248086 0.407843
vt 0.146620 0.034681
vt 0.125899 0.384798
vt 0.124631 0.383798
vt 0.116696 0.382314
vt 0.224831 0.390267
vt 0.207568 0.392048
vt 0.187138 0.392264
vt 0.167321 0.388469
vt 0.148129 0.386363
vt 0.136434 0.382208
vt 0.370851 0.926683
vt 0.514237 0.926683
vt 0.514232 0.961138
vt 0.370856 0.961138
vt 0.429671 0.036552
vt 0.520447 0.044023
vt 0.493310 0.379768
vt 0.482452 0.374832
vt 0.470090 0.369490
vt 0.451451 0.377781
vt 0.435795 0.365159
vt 0.418771 0.363771
vt 0.409105 0.362748
vt 0.401176 0.361831
vt 0.542265 0.045798
vt 0.514387 0.385571
vt 0.505882 0.388459
vt 0.374681 0.393942
vt 0.383080 0.390754
vt 0.398785 0.400661
vt 0.411227 0.403478
vt 0.423055 0.401117
vt 0.445591 0.402744
vt 0.467872 0.405694
vt 0.484701 0.393495
vt 0.509410 0.407843
vt 0.407945 0.034681
vt 0.387223 0.384798
vt 0.385956 0.383798
vt 0.378020 0.382314
vt 0.486156 0.390267
vt 0.468893 0.392048
vt 0.448462 0.392264
vt 0.428645 0.388469
vt 0.409453 0.386363
vt 0.397758 0.382208
vn 0.954221 -0.138794 0.264950
vn 0.954221 -0.138794 0.264950
vn 0.954221 -0.138794 0.264950
vn 0.954221 -0.138794 0.264950
vn -0.133736 -0.990321 -0.037133
vn -0.133736 -0.990321 -0.037133
vn -0.133736 -0.990321 -0.037133
vn -0.133736 -0.990321 -0.037133
vn -0.133736 -0.990321 -0.037133
vn -0.133736 -0.990321 -0.037133
vn -0.133736 -0.990321 -0.037133
vn -0.133736 -0.990321 -0.037133
vn -0.133736 -0.990321 -0.037133
vn -0.133736 -0.990321 -0.037133
vn -0.267539 0.000002 0.963547
vn -0.267539 0.000002 0.963547
vn -0.267539 0.000002 0.963547
vn -0.267539 0.000002 0.963547
vn -0.267539 0.000002 0.963547
vn 0.133736 0.990321 0.037134
vn 0.133736 0.990321 0.037134
vn 0.133736 0.990321 0.037134
vn 0.133736 0.990321 0.037134
vn 0.133736 0.990321 0.037134
vn 0.133736 0.990321 0.037134
vn 0.133736 0.990321 0.037134
vn 0.133736 0.990321 0.037134
vn 0.133736 0.990321 0.037134
vn 0.133736 0.990321 0.037134
vn 0.133736 0.990321 0.037134
vn 0.267539 0.000001 -0.963547
vn 0.267539 0.000001 -0.963547
vn 0.267539 0.000001 -0.963547
vn 0.267539 0.000001 -0.963547
vn 0.267539 0.000001 -0.963547
vn 0.267539 0.000001 -0.963547
vn -0.928182 -0.297678 -0.223307
vn -0.808373 -0.416269 -0.416236
vn -0.735417 -0.486388 -0.471794
vn -0.809799 -0.451510 -0.374653
vn -0.878708 -0.406532 -0.250207
vn -0.867168 -0.423701 -0.261718
vn -0.733113 -0.570359 -0.370455
vn -0.902507 -0.394507 -0.172762
vn -0.904513 -0.400823 -0.145595
vn -0.774983 -0.535364 -0.335837
vn -0.782068 -0.589517 -0.202089
vn -0.760070 -0.616808 -0.204551
vn -0.758440 -0.604230 0.244285
vn -0.719128 -0.669692 0.185384
vn -0.760200 -0.543803 0.355491
vn -0.602210 -0.702894 0.378528
vn -0.867528 -0.331975 -0.370389
vn -0.999040 -0.029704 0.032200
vn -0.833099 -0.417179 -0.363193
vn -0.914487 -0.402143 -0.044669
vn -0.837240 -0.484566 -0.253426
vn -0.718017 -0.465772 -0.517212
vn -0.828986 -0.546963 -0.116682
vn -0.901514 -0.356718 0.244998
vn -0.963430 -0.110131 0.244283
vn -0.963430 -0.110131 0.244283
vn 0.000000 0.000000 1.000000
vn 0.000000 0.000000 1.000000
vn 0.000000 0.000000 1.000000
vn 0.000000 0.000000 1.000000
vn 0.000000 1.000000 -0.000000
vn 0.000000 1.000000 -0.000000
vn 0.000000 1.000000 -0.000000
vn 0.000000 1.000000 -0.000000
vn 0.000000 1.000000 -0.000000
vn 0.000000 1.000000 -0.000000
vn 0.000000 1.000000 -0.000000
vn 0.000000 1.000000 -0.000000
vn 0.000000 1.000000 -0.000000
vn 0.000000 1.000000 -0.000000
vn 1.000000 -0.000002 -0.000000
vn 1.000000 -0.000002 -0.000000
vn 1.000000 -0.000002 -0.000000
vn 1.000000 -0.000002 -0.000000
vn 1.000000 -0.000002 -0.000000
vn 0.000000 -1.000000 0.000000
vn 0.000000 -1.000000 0.000000
vn 0.000000 -1.000000 0.000000
vn 0.000000 -1.000000 0.000000
vn 0.000000 -1.000000 0.000000
vn 0.000000 -1.000000 0.000000
vn 0.000000 -1.000000 0.000000
vn 0.000000 -1.000000 0.000000
vn 0.000000 -1.000000 0.000000
vn 0.000000 -1.000000 0.000000
vn 0.000000 -1.000000 0.000000
vn -1.000000 0.000001 -0.000000
vn -1.000000 0.000001 -0.000000
vn -1.000000 0.000001 -0.000000
vn -1.000000 0.000001 -0.000000
vn -1.000000 0.000001 -0.000000
vn -1.000000 0.000001 -0.000000
vn 0.033159 0.427220 -0.903539
vn -0.184791 0.535805 -0.823872
vn -0.257843 0.597549 -0.759244
vn -0.144342 0.569350 -0.809325
vn -0.005998 0.529403 -0.848349
vn -0.020177 0.545289 -0.838005
vn -0.160813 0.676638 -0.718541
vn 0.074991 0.517801 -0.852208
vn 0.101706 0.523316 -0.846048
vn -0.116256 0.646296 -0.754179
vn 0.014511 0.695905 -0.717987
vn 0.006254 0.720081 -0.693861
vn 0.438293 0.690741 -0.575132
vn 0.371022 0.752498 -0.544140
vn 0.545917 0.627005 -0.555734
vn 0.525846 0.762571 -0.376791
vn -0.124788 0.458537 -0.879870
vn 0.298310 0.161830 -0.940650
vn -0.127066 0.538044 -0.833284
vn 0.201620 0.522210 -0.828641
vn -0.020192 0.601255 -0.798802
vn -0.306259 0.576495 -0.757535
vn 0.109358 0.656868 -0.746033
vn 0.477257 0.464734 -0.745820
vn 0.493133 0.228839 -0.839317
vn 0.493133 0.228839 -0.839317
s off
g polySurface18
usemtl initialShadingGroup
f 3/1/1 4/2/2 2/3/3 1/4/4
f 1/5/5 2/6/6 6/7/7 22/8/8 11/9/9 10/10/10 9/11/11 23/12/12 24/13/13 5/14/14
f 2/6/15 4/15/16 7/16/17 12/17/18 6/7/19
f 8/18/20 19/19/21 18/20/22 17/21/23 16/22/24 15/23/25 14/24/26 13/25/27 7/26/28 4/2/29 3/1/30
f 3/27/31 1/5/32 5/14/33 21/28/34 20/29/35 8/30/36
s 1
f 12/17/37 25/31/38 22/8/39 6/7/40
f 25/31/38 26/32/41 11/9/42 22/8/39
f 9/11/43 10/10/44 27/33/45 28/34/46
f 26/32/41 27/33/45 10/10/44 11/9/42
f 9/11/43 28/34/46 29/35/47 23/12/48
f 23/12/48 29/35/47 30/36/49 24/13/50
f 24/13/50 30/36/49 21/28/51 5/14/52
f 13/25/53 25/31/38 12/17/37 7/26/54
f 14/24/55 26/32/41 25/31/38 13/25/53
f 15/23/56 27/33/45 26/32/41 14/24/55
f 28/34/46 27/33/45 15/23/56 16/22/57
f 29/35/47 28/34/46 16/22/57 17/21/58 18/20/59
f 30/36/49 29/35/47 18/20/59 19/19/60
f 21/28/51 30/36/49 19/19/60 8/30/61 20/29/62
s off
f 33/37/63 34/38/64 32/39/65 31/40/66
f 31/41/67 32/42/68 36/43/69 52/44/70 41/45/71 40/46/72 39/47/73 53/48/74 54/49/75 35/50/76
f 32/42/77 34/51/78 37/52/79 42/53/80 36/43/81
f 38/54/82 49/55/83 48/56/84 47/57/85 46/58/86 45/59/87 44/60/88 43/61/89 37/62/90 34/38/91 33/37/92
f 33/63/93 31/41/94 35/50/95 51/64/96 50/65/97 38/66/98
s 2
f 42/53/99 55/67/100 52/44/101 36/43/102
f 55/67/100 56/68/103 41/45/104 52/44/101
f 39/47/105 40/46/106 57/69/107 58/70/108
f 56/68/103 57/69/107 40/46/106 41/45/104
f 39/47/105 58/70/108 59/71/109 53/48/110
f 53/48/110 59/71/109 60/72/111 54/49/112
f 54/49/112 60/72/111 51/64/113 35/50/114
f 43/61/115 55/67/100 42/53/99 37/62/116
f 44/60/117 56/68/103 55/67/100 43/61/115
f 45/59/118 57/69/107 56/68/103 44/60/117
f 58/70/108 57/69/107 45/59/118 46/58/119
f 59/71/109 58/70/108 46/58/119 47/57/120 48/56/121
f 60/72/111 59/71/109 48/56/121 49/55/122
f 51/64/113 60/72/111 49/55/122 38/66/123 50/65/124
